<svg width="18" height="21" viewBox="0 0 18 21" fill="none" xmlns="http://www.w3.org/2000/svg">
<path d="M13.5 17.3926L12.0431 15.7698L11.25 16.6532L13.5 19.1594L17.4375 14.7736L16.6444 13.8902L13.5 17.3926ZM8.4375 15.1433H9.5625V16.3963H8.4375V15.1433ZM5.0625 15.1433H6.1875V16.3963H5.0625V15.1433ZM11.8125 12.0105H12.9375V13.2636H11.8125V12.0105ZM8.4375 12.0105H9.5625V13.2636H8.4375V12.0105ZM5.0625 12.0105H6.1875V13.2636H5.0625V12.0105ZM11.8125 8.8778H12.9375V10.1309H11.8125V8.8778ZM8.4375 8.8778H9.5625V10.1309H8.4375V8.8778ZM5.0625 8.8778H6.1875V10.1309H5.0625V8.8778ZM5.0625 5.11853H12.9375V6.99817H5.0625V5.11853Z" fill="#333333"/>
<path d="M9.5625 19.529H3.37781C3.07879 19.5287 2.7921 19.3962 2.58066 19.1607C2.36922 18.9252 2.2503 18.6058 2.25 18.2728V3.2363C2.2503 2.90473 2.36868 2.58683 2.57917 2.35237C2.78967 2.11791 3.07507 1.98605 3.37275 1.98572H14.6272C14.9249 1.98605 15.2103 2.11791 15.4208 2.35237C15.6313 2.58683 15.7497 2.90473 15.75 3.2363V12.0104H14.625V3.23881H3.375V18.2759H9.5625V19.529Z" fill="#333333"/>
</svg>
